# xmcd
#
# Track frame offsets:
#	150
#	11615
#	23338
#	37193
#	52018
#	63871
#	74538
#	84345
#	95876
#	108354
#	117025
#	131135
#	146818
#
# Disc length: 2129 seconds
#
# Revision: 0
# Processed by: cddbd v1.5.2PL0 Copyright (c) Steve Scherf et al.
# Submitted via: EasyCDDAExtractor 15.3.0.1
#
DISCID=b5084f0d
DTITLE=Anitta Ja Marianne Kettunen - Punasaappaat Keräilyharvinaisuus LP  1974
DYEAR=1974
DGENRE=Suomi Iskelmä
TTITLE0=Syysmietteitä
TTITLE1=Kastehelmi Ja Lumikukka
TTITLE2=Onnen Lapsi
TTITLE3=Lapsuuteni Kehtolaulu
TTITLE4=Tammerkoski
TTITLE5=Lännen Ajomies
TTITLE6=Punasaappaat
TTITLE7=Missä Olet Tyttöseni
TTITLE8=Hulivili-Jenkka ( Hulivilipoika )
TTITLE9=Totinen Rakkaus
TTITLE10=Meren Aallot
TTITLE11=Karjala Kaunehin ( Kotikoivikkotie )
TTITLE12=Lapsuuden Muistot - BONUS 1976
EXTD=
EXTT0=
EXTT1=
EXTT2=
EXTT3=
EXTT4=
EXTT5=
EXTT6=
EXTT7=
EXTT8=
EXTT9=
EXTT10=
EXTT11=
EXTT12=
PLAYORDER=
